<svg width="600" height="600" viewBox="0 0 600 600" fill="none" xmlns="http://www.w3.org/2000/svg">
<rect width="600" height="600" fill="white" fill-opacity="0.5"/>
<path d="M300 299.999C300 245.516 344.094 201.347 398.487 201.347C452.879 201.347 496.974 245.516 496.974 299.999C496.974 354.484 452.879 398.651 398.487 398.651C344.094 398.651 300 354.484 300 299.999Z" fill="#1ABCFE"/>
<path d="M103.026 497.303C103.026 442.82 147.12 398.651 201.513 398.651H300V497.303C300 551.788 255.906 595.955 201.513 595.955C147.12 595.955 103.026 551.788 103.026 497.303Z" fill="#0ACF83"/>
<path d="M300 4.04401V201.347H398.487C452.88 201.347 496.974 157.18 496.974 102.696C496.974 48.212 452.88 4.04401 398.487 4.04401H300Z" fill="#FF7262"/>
<path d="M103.026 102.696C103.026 157.18 147.12 201.347 201.513 201.347L300 201.347V4.04401L201.513 4.04395C147.12 4.04395 103.026 48.2119 103.026 102.696Z" fill="#F24E1E"/>
<path d="M103.026 299.999C103.026 354.484 147.12 398.651 201.513 398.651H300V201.347L201.513 201.347C147.12 201.347 103.026 245.516 103.026 299.999Z" fill="#A259FF"/>
</svg>
