<svg width="25" height="25" viewBox="0 0 25 25" fill="none" xmlns="http://www.w3.org/2000/svg">
<path fill-rule="evenodd" clip-rule="evenodd" d="M12.5 0C12.7313 0 12.9531 0.091881 13.1167 0.25543C13.2802 0.418979 13.3721 0.6408 13.3721 0.872093V2.03488C13.3721 2.26618 13.2802 2.488 13.1167 2.65155C12.9531 2.8151 12.7313 2.90698 12.5 2.90698C12.2687 2.90698 12.0469 2.8151 11.8833 2.65155C11.7198 2.488 11.6279 2.26618 11.6279 2.03488V0.872093C11.6279 0.6408 11.7198 0.418979 11.8833 0.25543C12.0469 0.091881 12.2687 0 12.5 0ZM3.66163 3.66163C3.82515 3.49831 4.0468 3.40658 4.27791 3.40658C4.50901 3.40658 4.73067 3.49831 4.89419 3.66163L5.35116 4.11744C5.5101 4.28184 5.59811 4.5021 5.59623 4.73076C5.59435 4.95942 5.50274 5.1782 5.34112 5.33997C5.1795 5.50174 4.96081 5.59356 4.73215 5.59565C4.50349 5.59775 4.28316 5.50995 4.1186 5.35116L3.66163 4.89419C3.49831 4.73067 3.40658 4.50901 3.40658 4.27791C3.40658 4.0468 3.49831 3.82515 3.66163 3.66163ZM21.3384 3.66163C21.5017 3.82515 21.5934 4.0468 21.5934 4.27791C21.5934 4.50901 21.5017 4.73067 21.3384 4.89419L20.8814 5.35116C20.7161 5.50521 20.4974 5.58907 20.2715 5.58509C20.0456 5.5811 19.83 5.48958 19.6702 5.32979C19.5104 5.17001 19.4189 4.95445 19.4149 4.72851C19.4109 4.50258 19.4948 4.28392 19.6488 4.1186L20.1058 3.66163C20.2693 3.49831 20.491 3.40658 20.7221 3.40658C20.9532 3.40658 21.1749 3.49831 21.3384 3.66163ZM12.5 6.39535C10.8809 6.39535 9.3282 7.03852 8.18336 8.18336C7.03852 9.3282 6.39535 10.8809 6.39535 12.5C6.39535 14.1191 7.03852 15.6718 8.18336 16.8166C9.3282 17.9615 10.8809 18.6047 12.5 18.6047C14.1191 18.6047 15.6718 17.9615 16.8166 16.8166C17.9615 15.6718 18.6047 14.1191 18.6047 12.5C18.6047 10.8809 17.9615 9.3282 16.8166 8.18336C15.6718 7.03852 14.1191 6.39535 12.5 6.39535ZM4.65116 12.5C4.65116 10.4184 5.47809 8.42198 6.95003 6.95003C8.42198 5.47809 10.4184 4.65116 12.5 4.65116C14.5816 4.65116 16.578 5.47809 18.05 6.95003C19.5219 8.42198 20.3488 10.4184 20.3488 12.5C20.3488 14.5816 19.5219 16.578 18.05 18.05C16.578 19.5219 14.5816 20.3488 12.5 20.3488C10.4184 20.3488 8.42198 19.5219 6.95003 18.05C5.47809 16.578 4.65116 14.5816 4.65116 12.5ZM0 12.5C0 12.2687 0.091881 12.0469 0.25543 11.8833C0.418979 11.7198 0.6408 11.6279 0.872093 11.6279H2.03488C2.26618 11.6279 2.488 11.7198 2.65155 11.8833C2.8151 12.0469 2.90698 12.2687 2.90698 12.5C2.90698 12.7313 2.8151 12.9531 2.65155 13.1167C2.488 13.2802 2.26618 13.3721 2.03488 13.3721H0.872093C0.6408 13.3721 0.418979 13.2802 0.25543 13.1167C0.091881 12.9531 0 12.7313 0 12.5ZM22.093 12.5C22.093 12.2687 22.1849 12.0469 22.3485 11.8833C22.512 11.7198 22.7338 11.6279 22.9651 11.6279H24.1279C24.3592 11.6279 24.581 11.7198 24.7446 11.8833C24.9081 12.0469 25 12.2687 25 12.5C25 12.7313 24.9081 12.9531 24.7446 13.1167C24.581 13.2802 24.3592 13.3721 24.1279 13.3721H22.9651C22.7338 13.3721 22.512 13.2802 22.3485 13.1167C22.1849 12.9531 22.093 12.7313 22.093 12.5ZM19.6488 19.6488C19.8124 19.4855 20.034 19.3938 20.2651 19.3938C20.4962 19.3938 20.7179 19.4855 20.8814 19.6488L21.3384 20.1058C21.4241 20.1857 21.4928 20.2819 21.5404 20.3889C21.5881 20.4959 21.6137 20.6114 21.6158 20.7285C21.6179 20.8456 21.5963 20.9619 21.5525 21.0705C21.5086 21.1791 21.4433 21.2777 21.3605 21.3605C21.2777 21.4433 21.1791 21.5086 21.0705 21.5525C20.9619 21.5963 20.8456 21.6179 20.7285 21.6158C20.6114 21.6137 20.4959 21.5881 20.3889 21.5404C20.2819 21.4928 20.1857 21.4241 20.1058 21.3384L19.6488 20.8814C19.4855 20.7179 19.3938 20.4962 19.3938 20.2651C19.3938 20.034 19.4855 19.8124 19.6488 19.6488ZM5.35116 19.6488C5.51448 19.8124 5.60621 20.034 5.60621 20.2651C5.60621 20.4962 5.51448 20.7179 5.35116 20.8814L4.89419 21.3384C4.81435 21.4241 4.71807 21.4928 4.61109 21.5404C4.50411 21.5881 4.38863 21.6137 4.27154 21.6158C4.15444 21.6179 4.03813 21.5963 3.92954 21.5525C3.82095 21.5086 3.7223 21.4433 3.63949 21.3605C3.55668 21.2777 3.49139 21.1791 3.44753 21.0705C3.40367 20.9619 3.38213 20.8456 3.3842 20.7285C3.38626 20.6114 3.41189 20.4959 3.45956 20.3889C3.50722 20.2819 3.57595 20.1857 3.66163 20.1058L4.11744 19.6488C4.19843 19.5678 4.29459 19.5035 4.40044 19.4596C4.50628 19.4158 4.61973 19.3932 4.7343 19.3932C4.84887 19.3932 4.96232 19.4158 5.06817 19.4596C5.17401 19.5035 5.27017 19.5678 5.35116 19.6488ZM12.5 22.093C12.7313 22.093 12.9531 22.1849 13.1167 22.3485C13.2802 22.512 13.3721 22.7338 13.3721 22.9651V24.1279C13.3721 24.3592 13.2802 24.581 13.1167 24.7446C12.9531 24.9081 12.7313 25 12.5 25C12.2687 25 12.0469 24.9081 11.8833 24.7446C11.7198 24.581 11.6279 24.3592 11.6279 24.1279V22.9651C11.6279 22.7338 11.7198 22.512 11.8833 22.3485C12.0469 22.1849 12.2687 22.093 12.5 22.093Z" fill="black"/>
</svg>
