<svg width="600" height="600" viewBox="0 0 600 600" fill="none" xmlns="http://www.w3.org/2000/svg">
<rect width="600" height="600" fill="white" fill-opacity="0.5"/>
<g clip-path="url(#clip0_27_310)">
<path d="M441.695 70.124C518.692 117.686 570 202.851 570 300C570 449.117 449.117 570 300 570C267.482 570 236.307 564.251 207.443 553.706L204.36 552.558L209.381 550.946L215.836 548.828L219.02 547.765L222.176 546.697L228.403 544.552L234.515 542.393L240.514 540.22L246.398 538.032L249.298 536.933L255.012 534.724C261.046 532.359 266.885 529.969 272.531 527.554L276.728 525.737L281.873 523.453C284.134 522.434 286.362 521.411 288.555 520.383L291.821 518.838L296.624 516.507L298.983 515.336L301.314 514.16L305.89 511.798C344.304 491.648 370.404 469.758 384.261 445.757C413.62 394.906 387.979 340.563 314.371 285.163L308.381 280.672L304.743 277.881L301.21 275.112L297.783 272.364L294.46 269.637L292.839 268.281L291.243 266.931L288.13 264.245L285.864 262.245L283.656 260.256L280.803 257.623L278.053 255.01L275.406 252.417L274.121 251.128L272.861 249.844L270.419 247.292C241.322 216.36 234.824 189.881 248.034 167C254.757 155.355 266.414 143.906 282.982 132.756L284.994 131.419L288.162 129.38C289.595 128.476 291.06 127.574 292.558 126.673L294.829 125.324L298.328 123.307L301.937 121.297L304.716 119.794L307.557 118.296L311.442 116.305C314.396 114.815 317.444 113.331 320.584 111.854L323.755 110.38L328.08 108.421L330.283 107.445L334.773 105.499L337.059 104.529L341.713 102.596L344.081 101.633L348.901 99.7135L351.351 98.757L356.335 96.851L361.429 94.9542L364.017 94.0093L369.276 92.1267L374.644 90.2537L380.122 88.3904L382.902 87.4625L388.544 85.6141L394.296 83.7759L400.158 81.9479L406.129 80.1303L412.209 78.3232L419.964 76.0794L427.89 73.8526L437.627 71.2031L441.695 70.124Z" fill="url(#paint0_linear_27_310)"/>
<path d="M300 30C332.835 30 364.3 35.861 393.408 46.594L396.517 47.7625L394.546 48.3594L384.929 51.3238L381.78 52.3196L375.567 54.3228L369.467 56.3417L363.481 58.3762L357.608 60.4267L351.847 62.4932L349.01 63.5325L342.039 66.1485L335.246 68.7902L329.938 70.9222L327.326 71.9945L322.188 74.1516C269.677 96.5295 235.263 121.621 218.806 150.126C190.082 199.876 216.135 253.508 289.75 308.894L295.739 313.385L299.377 316.177L302.908 318.95L304.633 320.328L308.005 323.071L310.464 325.115L312.865 327.148L315.973 329.841L317.487 331.18L320.438 333.845C322.049 335.32 323.611 336.786 325.125 338.243L327.36 340.422L330.578 343.666L333.634 346.88C362.607 378.027 368.8 405.036 355.032 428.883C346.124 444.313 329.115 459.503 304.046 474.248L301.744 475.587L298.014 477.7L294.174 479.807C292.009 480.975 289.793 482.141 287.526 483.303L284.086 485.045L279.857 487.128L275.516 489.204L271.065 491.274L268.798 492.306L264.181 494.364L259.453 496.415L254.614 498.458L252.153 499.477L247.148 501.509L244.604 502.522L242.032 503.533L236.805 505.549L231.468 507.557L226.02 509.556L220.462 511.548L214.793 513.53L211.917 514.518L206.082 516.488L203.123 517.469L197.122 519.425L191.011 521.372L183.216 523.793L175.249 526.199L168.752 528.113L159.683 530.721C81.9211 483.328 30 397.727 30 300C30 150.883 150.883 30 300 30Z" fill="url(#paint1_linear_27_310)"/>
</g>
<defs>
<linearGradient id="paint0_linear_27_310" x1="18486.4" y1="70.124" x2="18486.4" y2="50057.7" gradientUnits="userSpaceOnUse">
<stop stop-color="#0080FF"/>
<stop offset="1" stop-color="#00B7FF"/>
</linearGradient>
<linearGradient id="paint1_linear_27_310" x1="18355.9" y1="30" x2="18355.9" y2="50102.1" gradientUnits="userSpaceOnUse">
<stop stop-color="#00B7FF"/>
<stop offset="1" stop-color="#0080FF"/>
</linearGradient>
<clipPath id="clip0_27_310">
<rect width="540" height="540" fill="white" transform="translate(30 30)"/>
</clipPath>
</defs>
</svg>
