<svg width="600" height="600" viewBox="0 0 600 600" fill="none" xmlns="http://www.w3.org/2000/svg">
<rect width="600" height="600" fill="white" fill-opacity="0.5"/>
<path fill-rule="evenodd" clip-rule="evenodd" d="M142.925 356.906L76.9626 243.053L11 356.906H142.925ZM209.458 351.723L264.583 248.229H240.739L202.713 323.39L164.686 248.229H140.841L195.967 351.723H209.458ZM585.136 248.229V351.724H565.397V248.229H585.136ZM475.257 313.095C475.257 305.029 476.953 297.935 480.346 291.813C483.738 285.69 488.468 280.977 494.533 277.673C500.598 274.369 507.693 272.717 515.816 272.717C523.013 272.717 529.49 274.272 535.247 277.382C541.005 280.491 545.579 285.107 548.972 291.23C552.364 297.352 554.114 304.834 554.216 313.678V318.197H496.077C496.486 324.61 498.388 329.664 501.781 333.356C505.277 336.952 509.957 338.75 515.816 338.75C519.516 338.75 522.911 337.778 525.993 335.834C529.078 333.891 531.392 331.267 532.933 327.963L553.138 329.421C550.668 336.709 546.042 342.54 539.258 346.913C532.47 351.286 524.658 353.472 515.816 353.472C507.693 353.472 500.598 351.82 494.533 348.516C488.468 345.212 483.738 340.499 480.346 334.377C476.953 328.254 475.257 321.161 475.257 313.095ZM533.859 305.806C533.139 299.49 531.135 294.874 527.844 291.958C524.554 288.946 520.546 287.44 515.816 287.44C510.366 287.44 505.946 289.043 502.554 292.25C499.159 295.457 497.053 299.976 496.229 305.806H533.859ZM441.949 291.958C445.239 294.582 447.294 298.226 448.118 302.891L468.472 301.87C467.753 295.943 465.647 290.792 462.15 286.419C458.654 282.046 454.132 278.694 448.578 276.361C443.131 273.932 437.117 272.717 430.535 272.717C422.413 272.717 415.321 274.369 409.253 277.673C403.188 280.977 398.458 285.69 395.065 291.813C391.673 297.935 389.977 305.029 389.977 313.095C389.977 321.161 391.673 328.254 395.065 334.377C398.458 340.499 403.188 345.212 409.253 348.516C415.321 351.82 422.413 353.472 430.535 353.472C437.32 353.472 443.49 352.257 449.041 349.828C454.595 347.301 459.117 343.754 462.613 339.187C466.11 334.62 468.215 329.275 468.935 323.153L448.426 322.278C447.706 327.428 445.699 331.413 442.412 334.231C439.121 336.952 435.161 338.312 430.535 338.312C424.163 338.312 419.227 336.126 415.73 331.753C412.236 327.38 410.489 321.161 410.489 313.095C410.489 305.029 412.236 298.81 415.73 294.436C419.227 290.064 424.163 287.877 430.535 287.877C434.958 287.877 438.759 289.237 441.949 291.958ZM341.812 274.463H360.182L360.713 289.332C362.016 285.123 363.828 281.855 366.151 279.527C369.518 276.151 374.214 274.463 380.234 274.463H387.736V290.378H380.082C375.795 290.378 372.275 290.957 369.518 292.114C366.865 293.271 364.825 295.104 363.397 297.612C362.07 300.12 361.407 303.303 361.407 307.161V351.723H341.812V274.463ZM257.08 291.813C253.688 297.935 251.991 305.029 251.991 313.095C251.991 321.161 253.688 328.254 257.08 334.377C260.473 340.499 265.203 345.212 271.269 348.516C277.335 351.82 284.429 353.472 292.551 353.472C301.391 353.472 309.206 351.286 315.991 346.913C322.779 342.54 327.404 336.709 329.871 329.421L309.669 327.963C308.128 331.267 305.814 333.891 302.729 335.834C299.644 337.778 296.252 338.75 292.551 338.75C286.69 338.75 282.013 336.952 278.517 333.356C275.124 329.664 273.222 324.61 272.811 318.197H330.952V313.678C330.847 304.834 329.1 297.352 325.708 291.23C322.316 285.107 317.741 280.491 311.983 277.382C306.226 274.272 299.749 272.717 292.551 272.717C284.429 272.717 277.335 274.369 271.269 277.673C265.203 280.977 260.473 285.69 257.08 291.813ZM304.581 291.958C307.868 294.874 309.875 299.49 310.595 305.806H272.965C273.788 299.976 275.895 295.457 279.288 292.25C282.681 289.043 287.102 287.44 292.551 287.44C297.279 287.44 301.29 288.946 304.581 291.958Z" fill="black"/>
</svg>
